<svg id="Layer_1" data-name="Layer 1" xmlns="http://www.w3.org/2000/svg" xmlns:xlink="http://www.w3.org/1999/xlink" viewBox="0 0 336.18 164.1"><defs><style>.cls-1{fill:none;}.cls-2{fill:url(#linear-gradient);}.cls-3{fill:#323649;}</style><linearGradient id="linear-gradient" x1="143.89" y1="24.22" x2="170.82" y2="101.03" gradientUnits="userSpaceOnUse"><stop offset="0" stop-color="#adcc9c"/><stop offset="1" stop-color="#629b6e"/></linearGradient></defs><circle class="cls-1" cx="192.25" cy="82.02" r="16.17"/><path class="cls-1" d="M136,65.91a16.17,16.17,0,1,0,16.17,16.17A16.17,16.17,0,0,0,136,65.91Z" transform="translate(-0.07)"/><path class="cls-1" d="M79.73,65.91A16.17,16.17,0,1,0,95.9,82.08,16.17,16.17,0,0,0,79.73,65.91Z" transform="translate(-0.07)"/><path class="cls-1" d="M248.61,65.85A16.17,16.17,0,1,0,264.78,82,16.17,16.17,0,0,0,248.61,65.85Z" transform="translate(-0.07)"/><path class="cls-2" d="M288.42,42.21,246.22,0l-27.6,27.6a64.8,64.8,0,0,1,19,18.48l-1.57.52A57.4,57.4,0,0,0,229.74,40l-.12-.1c-.69-.61-1.4-1.21-2.13-1.79l-.36-.28c-.65-.52-1.32-1-2-1.51l-.48-.34c-.66-.46-1.33-.91-2-1.34l-.51-.33c-.71-.44-1.42-.86-2.15-1.27l-.42-.25c-.86-.47-1.73-.93-2.62-1.36h0A57.23,57.23,0,0,0,211.36,29c-.24-.08-.48-.15-.72-.24-.69-.24-1.39-.47-2.1-.68l-1-.28-1.9-.5-1.1-.25c-.62-.14-1.24-.26-1.86-.38l-1.15-.21c-.63-.1-1.27-.19-1.91-.27l-1.13-.15q-1-.1-2.1-.18l-1-.07c-1-.06-2.06-.09-3.11-.09l-.65,0c-.75,0-1.5,0-2.24,0-.46,0-.91.07-1.37.11s-1,.06-1.48.11-1.07.13-1.6.2-.81.09-1.21.15c-.61.1-1.21.22-1.82.33-.31.06-.63.1-.94.17-.67.13-1.32.29-2,.45l-.75.17c-.71.18-1.41.39-2.11.6l-.55.15q-1.12.36-2.22.75l-.38.13c-.78.29-1.54.59-2.3.91l-.25.09c-.8.34-1.59.7-2.37,1.07l-.11.05q-1.22.59-2.4,1.23h0c-.48.26-1,.53-1.42.81a56.25,56.25,0,0,0-56.3,0,56.3,56.3,0,0,0-68,8.94h0L.07,82.05l39.79,39.79,0,0L82.12,164.1l27.59-27.6A64.89,64.89,0,0,1,90.7,118l1.57-.52a56.57,56.57,0,0,0,6.33,6.62l.11.1c.7.61,1.41,1.21,2.13,1.79l.36.28c.66.52,1.32,1,2,1.51l.48.34c.65.46,1.32.9,2,1.34l.51.33c.7.44,1.42.86,2.14,1.27l.43.25c.86.47,1.72.93,2.61,1.36h0a55,55,0,0,0,5.59,2.35c.23.09.47.16.71.24.7.24,1.39.47,2.1.69l1,.27c.63.18,1.27.35,1.91.51l1.1.25c.61.14,1.23.26,1.86.38l1.15.2c.63.11,1.27.2,1.91.28l1.13.14c.69.08,1.39.14,2.09.19l1,.07c1,.06,2.07.09,3.11.09l.65,0c.75,0,1.5,0,2.24-.05l1.37-.11c.49,0,1-.06,1.48-.11s1.07-.13,1.61-.2l1.2-.16c.62-.09,1.22-.21,1.82-.32.32-.06.63-.1,1-.17.66-.13,1.31-.29,2-.45l.74-.17c.71-.19,1.41-.39,2.12-.6l.54-.16c.75-.23,1.49-.48,2.23-.75l.38-.13c.77-.28,1.53-.58,2.29-.9l.25-.1c.81-.33,1.6-.69,2.38-1.06l.11-.05q1.22-.58,2.4-1.23h0c.48-.25.95-.53,1.43-.8a56.25,56.25,0,0,0,56.3,0,56.3,56.3,0,0,0,68-8.94h0l39.82-39.81L288.48,42.26Zm-208.69,56A16.17,16.17,0,1,1,95.9,82.08,16.17,16.17,0,0,1,79.73,98.25Zm56.28,0a16.17,16.17,0,1,1,16.17-16.17A16.17,16.17,0,0,1,136,98.25Zm56.31-.06A16.17,16.17,0,1,1,208.49,82,16.17,16.17,0,0,1,192.32,98.19Zm56.29,0A16.17,16.17,0,1,1,264.78,82,16.17,16.17,0,0,1,248.61,98.19Z" transform="translate(-0.07)"/><path class="cls-3" d="M285.6,128.29l1.22-1.21.92.92,0,0a3.34,3.34,0,0,1,.17-1.76,4.23,4.23,0,0,1,1-1.55,5,5,0,0,1,1.6-1.09,4.25,4.25,0,0,1,1.74-.31,4.62,4.62,0,0,1,1.73.42,5.56,5.56,0,0,1,2.65,2.65,4.38,4.38,0,0,1,.41,1.72,4.21,4.21,0,0,1-.32,1.73,4.72,4.72,0,0,1-1.08,1.6,4.19,4.19,0,0,1-1.59,1,3.11,3.11,0,0,1-1.72.14l0,0,4.73,4.72-1.22,1.22Zm4.3-2.35a3.15,3.15,0,0,0-.71,1,2.61,2.61,0,0,0-.2,1.12,2.89,2.89,0,0,0,.28,1.12,3.84,3.84,0,0,0,.75,1.05,3.76,3.76,0,0,0,1.05.75,2.85,2.85,0,0,0,1.12.28,2.8,2.8,0,0,0,1.12-.2,3.16,3.16,0,0,0,1-.71,3,3,0,0,0,.71-1.05,2.75,2.75,0,0,0,.21-1.12,3,3,0,0,0-.29-1.12,3.64,3.64,0,0,0-.75-1,3.86,3.86,0,0,0-1-.75,3.13,3.13,0,0,0-1.12-.28,3,3,0,0,0-1.13.2A3.16,3.16,0,0,0,289.9,125.94Z" transform="translate(-0.07)"/><path class="cls-3" d="M296.47,123.82a4.73,4.73,0,0,1-1-1.57,4.83,4.83,0,0,1-.35-1.79,4.74,4.74,0,0,1,.36-1.8,4.94,4.94,0,0,1,1.07-1.6,4.64,4.64,0,0,1,1.6-1.07,4.75,4.75,0,0,1,1.81-.36,4.86,4.86,0,0,1,1.79.34,4.61,4.61,0,0,1,1.57,1,4.55,4.55,0,0,1,1.05,1.58,4.64,4.64,0,0,1,.35,1.79,4.9,4.9,0,0,1-.37,1.79,4.69,4.69,0,0,1-1.07,1.6,4.82,4.82,0,0,1-1.6,1.08,4.94,4.94,0,0,1-1.8.36,4.66,4.66,0,0,1-1.79-.34A4.83,4.83,0,0,1,296.47,123.82Zm1.3-1.29a3.76,3.76,0,0,0,1.05.75,2.85,2.85,0,0,0,1.12.28,2.77,2.77,0,0,0,1.12-.2,3.16,3.16,0,0,0,1-.71,3,3,0,0,0,.71-1.05,2.78,2.78,0,0,0,.21-1.12,2.91,2.91,0,0,0-.29-1.12,3.64,3.64,0,0,0-.75-1,3.86,3.86,0,0,0-1-.75,3.13,3.13,0,0,0-1.12-.28,3,3,0,0,0-1.13.2,3.37,3.37,0,0,0-1.75,1.76,2.61,2.61,0,0,0-.2,1.12,2.89,2.89,0,0,0,.28,1.12A3.84,3.84,0,0,0,297.77,122.53Z" transform="translate(-0.07)"/><path class="cls-3" d="M305.9,115.29a2.27,2.27,0,0,0,.94.58,2.78,2.78,0,0,0,1.07.11,3.26,3.26,0,0,0,1.07-.31,3.47,3.47,0,0,0,.94-.68,2.6,2.6,0,0,0,.73-1.25,4.67,4.67,0,0,0,.07-1.46l1.62-.22a4.78,4.78,0,0,1-1.53,4.15,5,5,0,0,1-1.62,1.11,4.18,4.18,0,0,1-1.75.33,4.38,4.38,0,0,1-1.72-.41,5.16,5.16,0,0,1-1.56-1.1,4.84,4.84,0,0,1-1.08-1.58,4.56,4.56,0,0,1-.38-1.75,4.34,4.34,0,0,1,.34-1.76,4.63,4.63,0,0,1,1.06-1.58,4.43,4.43,0,0,1,1.74-1.14,3.88,3.88,0,0,1,1.74-.19,4.59,4.59,0,0,1,1.63.53,6.48,6.48,0,0,1,1.39,1.06l.43.43Zm2.86-4.81a3.72,3.72,0,0,0-.87-.61,2.21,2.21,0,0,0-.93-.24,2.11,2.11,0,0,0-1,.18,2.79,2.79,0,0,0-.94.66,2.62,2.62,0,0,0-.65,1,2.87,2.87,0,0,0-.19,1.06,3,3,0,0,0,.2,1,2.36,2.36,0,0,0,.52.8Z" transform="translate(-0.07)"/><path class="cls-3" d="M313.58,103.53a2.53,2.53,0,0,0-1,.08,2.15,2.15,0,0,0-1,.59,2.1,2.1,0,0,0-.57.93.89.89,0,0,0,.86,1.13,1.81,1.81,0,0,0,.71-.15,3.15,3.15,0,0,0,.7-.37l.58-.39a10,10,0,0,1,1-.51,3.09,3.09,0,0,1,.95-.24,2.09,2.09,0,0,1,.92.14,2.52,2.52,0,0,1,.9.61,2.48,2.48,0,0,1,.69,1.16,2.79,2.79,0,0,1,0,1.22,4,4,0,0,1-.48,1.18,6.5,6.5,0,0,1-.83,1,5.4,5.4,0,0,1-1.64,1.15,3.54,3.54,0,0,1-2,.18l.16-1.67a5.37,5.37,0,0,0,1.19-.14,2.3,2.3,0,0,0,1.12-.66,3.57,3.57,0,0,0,.42-.51,1.84,1.84,0,0,0,.27-.57,1.3,1.3,0,0,0,0-.55.85.85,0,0,0-.24-.47.87.87,0,0,0-.62-.28,1.64,1.64,0,0,0-.68.13,5.08,5.08,0,0,0-.66.33l-.57.37c-.32.2-.64.37-1,.53a3.09,3.09,0,0,1-.94.29A2.05,2.05,0,0,1,311,108a2.37,2.37,0,0,1-.93-.61,2.48,2.48,0,0,1-.66-1.08,2.53,2.53,0,0,1-.06-1.16,3.55,3.55,0,0,1,.42-1.15,4.46,4.46,0,0,1,.76-1,4.71,4.71,0,0,1,1.49-1,2.75,2.75,0,0,1,1.75-.13Z" transform="translate(-0.07)"/><path class="cls-3" d="M319.59,100.71a4.65,4.65,0,0,1-1-1.58A4.86,4.86,0,0,1,323,92.51a5,5,0,0,1,1.79.34,4.8,4.8,0,0,1,1.58,1.05,5,5,0,0,1,1.05,1.58,4.66,4.66,0,0,1,.34,1.79,4.74,4.74,0,0,1-.36,1.8,4.82,4.82,0,0,1-1.08,1.6,4.74,4.74,0,0,1-1.6,1.07,4.71,4.71,0,0,1-5.16-1Zm1.3-1.3a3.66,3.66,0,0,0,1,.75,2.76,2.76,0,0,0,1.12.28,2.58,2.58,0,0,0,1.12-.2,3,3,0,0,0,1.05-.71,3,3,0,0,0,.71-1,2.63,2.63,0,0,0,.2-1.12,2.94,2.94,0,0,0-.28-1.13,3.86,3.86,0,0,0-.75-1,3.51,3.51,0,0,0-1.05-.75,2.69,2.69,0,0,0-1.12-.28,2.63,2.63,0,0,0-1.12.2,3,3,0,0,0-1,.71,2.89,2.89,0,0,0-.71,1,2.81,2.81,0,0,0-.21,1.12,2.86,2.86,0,0,0,.29,1.12A3.39,3.39,0,0,0,320.89,99.41Z" transform="translate(-0.07)"/><path class="cls-3" d="M324.18,89.72l1.22-1.22,1,1,0,0a2.58,2.58,0,0,1,0-1.63,3.77,3.77,0,0,1,1-1.63,4.09,4.09,0,0,1,1-.74,2.79,2.79,0,0,1,1.19-.3,2.94,2.94,0,0,1,1.26.26,3.88,3.88,0,0,1,1.29.91l4.12,4.11L335,91.66l-3.78-3.78a3,3,0,0,0-.89-.64,2,2,0,0,0-.84-.19,1.66,1.66,0,0,0-.75.18,2.55,2.55,0,0,0-.63.46,2.8,2.8,0,0,0-.58.82,2.08,2.08,0,0,0-.18,1,2.52,2.52,0,0,0,.29,1,4.3,4.3,0,0,0,.82,1.1l3.3,3.29-1.22,1.22Z" transform="translate(-0.07)"/></svg>